<svg width="1202" height="930" viewBox="0 0 1202 930" fill="none" xmlns="http://www.w3.org/2000/svg">
<path d="M654.692 838L825 689.806C731.995 496.572 586.846 425.476 586.846 195H501.692L420 464.105C600.181 557.318 669 797 621.115 816.918L654.692 838Z" fill="url(#paint0_linear)"/>
<path d="M768.654 159.249C768.654 159.249 991.8 77 909.551 159.249C827.302 241.499 851.932 556.109 815.012 810.399C738.757 920.087 560.595 800.391 626.298 810.399C692.001 820.407 768.654 159.249 768.654 159.249Z" fill="#4F98C0"/>
<path d="M433.896 857C433.896 857 198.461 951.539 293 857C387.539 762.46 350.619 460.14 387.539 205.85C463.794 96.1628 678.5 205.85 576.253 205.85C474.007 205.85 433.896 857 433.896 857Z" fill="#4F98C0"/>
<g opacity="0.15">
<path d="M704.516 811.729L896.916 658.061C791.847 457.689 627.869 383.966 627.869 144.977H531.669L439.379 424.022C642.934 520.678 720.68 769.214 666.584 789.868L704.516 811.729Z" fill="url(#paint1_linear)"/>
<path d="M833.262 107.906C833.262 107.906 1085.35 22.618 992.436 107.906C899.517 193.193 927.342 519.425 885.632 783.108C799.486 896.847 598.212 772.73 672.438 783.108C746.664 793.486 833.262 107.906 833.262 107.906Z" fill="#4F98C0"/>
<path d="M455.078 831.43C455.078 831.43 189.101 929.462 295.904 831.43C402.708 733.399 360.998 419.911 402.708 156.228C488.854 42.4886 731.412 156.228 615.902 156.228C500.392 156.228 455.078 831.43 455.078 831.43Z" fill="#4F98C0"/>
</g>
<defs>
<linearGradient id="paint0_linear" x1="462.231" y1="177.638" x2="842.852" y2="666.402" gradientUnits="userSpaceOnUse">
<stop offset="0.0424301" stop-color="#4F98C0"/>
<stop offset="0.567708" stop-color="#4F98C0" stop-opacity="0.23"/>
<stop offset="0.744792" stop-color="#4F98C0" stop-opacity="0.529036"/>
<stop offset="1" stop-color="#4F98C0" stop-opacity="0.96"/>
</linearGradient>
<linearGradient id="paint1_linear" x1="487.088" y1="126.974" x2="872.258" y2="665.834" gradientUnits="userSpaceOnUse">
<stop offset="0.0424301" stop-color="#4F98C0"/>
<stop offset="0.567708" stop-color="#4F98C0" stop-opacity="0.23"/>
<stop offset="0.744792" stop-color="#4F98C0" stop-opacity="0.529036"/>
<stop offset="1" stop-color="#4F98C0" stop-opacity="0.96"/>
</linearGradient>
</defs>
</svg>
